<svg class="logo" version="1.1" xmlns="http://www.w3.org/2000/svg" x="0px" y="0px"
	 viewBox="0 0 815 132.1" style="enable-background:new 0 0 815 132.1;" xml:space="preserve">
<title>FIFA maniaci</title>
<desc>Logo FIFA maniakov.</desc>
<rect x="-9.8" y="17.1" class="st0" width="262.8" height="98"/>
<g class="st1">
	<path class="st2" d="M11.2,104c0,3.2-2.3,4.9-5.6,4.9c-3.1,0-5.5-1.6-5.5-5V30.2c0-8.9,3.6-12.4,11.8-12.4h46.1
		c3.1,0,4.8,2.1,4.8,5c0,2.9-1.6,5.1-4.8,5.1H14.8c-2.2,0-3.6,1.4-3.6,3.7v25.1h40.4c3,0,4.5,2.1,4.5,5c0,2.7-1.6,4.9-4.5,4.9H11.2
		V104z"/>
	<path class="st2" d="M76,21.8c0-3.2,2.3-4.8,5.5-4.8c3.2,0,5.7,1.5,5.7,4.8v82.2c0,3.1-2.4,4.8-5.7,4.8c-3.1,0-5.5-1.6-5.5-4.8
		V21.8z"/>
	<path class="st2" d="M118.3,104c0,3.2-2.3,4.9-5.6,4.9c-3.1,0-5.5-1.6-5.5-5V30.2c0-8.9,3.6-12.4,11.8-12.4h46.1
		c3.1,0,4.8,2.1,4.8,5c0,2.9-1.6,5.1-4.8,5.1h-43.3c-2.2,0-3.6,1.4-3.6,3.7v25.1h40.4c3,0,4.5,2.1,4.5,5c0,2.7-1.6,4.9-4.5,4.9
		h-40.4V104z"/>
	<path class="st2" d="M177.5,105.6c-0.8,2.3-2.6,3.2-4.5,3.2c-0.8,0-1.5-0.1-2.3-0.3c-2.3-0.6-4.1-2.6-4.1-4.8c0-0.7,0.1-1.3,0.3-2
		l31.6-79.2c1.5-3.9,4.4-5.5,8-5.5c3.7,0,6.7,1.5,8.2,5.5l31.6,79.5c0.3,0.7,0.5,1.3,0.5,2c0,2.3-1.9,4.1-4.2,4.6
		c-0.7,0.2-1.4,0.3-2.1,0.3c-2.1,0-3.9-1-4.8-3.2l-9.2-24h-40.1L177.5,105.6z M223,71.9l-12.9-33.8c-1.3-3.4-2.6-7.1-3.6-11
		c-1,3.9-2.2,7.7-3.6,11.1l-13.1,33.6H223z"/>
</g>
<path class="st3" d="M153,136.5"/>
<path class="st3" d="M232.7,98.1"/>
<rect x="498.5" y="11.5" class="st0" width="368.7" height="96"/>
<g class="st1">
	<path class="st2" d="M545.9,56.5c0-7.7-4.2-11-13.3-11c-8.5,0-12.6,3.2-14.6,8.6c-0.8,2.2-2.6,3-4.5,3c-0.9,0-1.9-0.1-2.7-0.5
		c-2.2-0.7-3.8-2.3-3.8-4.4c0-0.5,0.1-0.9,0.2-1.4c1.2-3.6,4.2-7,6.8-9c4.1-3.1,9.3-5.1,18.7-5.1c15.5,0,23.2,6.1,23.2,19.8v31.7
		c0,4.1,0.6,8,1.3,10.2c0.1,0.3,0.2,0.8,0.2,1.2c0,1.9-1.7,3.5-4.6,3.7c-0.3,0-0.7,0-1,0c-2.3,0-4.4-0.7-4.9-2.8
		c-0.3-1.4-0.6-3.5-0.7-5.8c-4.4,5-10.6,9.5-22,9.5c-12.8,0-20.5-7.2-20.5-19.1c0-10.9,6.5-17.9,17.5-20.9
		c6.4-1.7,12.4-2.4,24.8-2.7V56.5z M545.9,69.9c-13.6,0.3-20,1.5-24.6,3.8c-4.6,2.3-7.1,5.9-7.1,11.5c0,6,4.6,10.1,11.6,10.1
		c7.3,0,13.3-3.6,17.1-8.2c2.2-2.8,3-5,3-9.4V69.9z"/>
	<path class="st2" d="M626.6,98.7c0,3.1-2.3,4.6-5.3,4.6c-3.1,0-5.3-1.5-5.3-4.6V61.5c0-9.9-3.9-15.4-12.6-15.4
		c-6.3,0-11.5,2.8-15.4,8.2c-2.9,3.9-4.1,7.3-4.1,11.8v32.5c0,3.1-2.2,4.6-5.2,4.6c-3.2,0-5.3-1.5-5.3-4.6V42.2c0-3,2.2-4.5,5.5-4.5
		c3,0,5.1,1.5,5.1,4.5v3.1c0,1.5-0.3,2.7-0.5,4.9c4.1-8.2,11-13.5,22-13.5c13.8,0,21.2,8.4,21.2,22.6V98.7z"/>
	<path class="st2" d="M655.9,19.2c0,4.5-3.5,7.9-7.8,7.9c-4.4,0-7.9-3.4-7.9-7.9c0-4.4,3.5-7.8,7.9-7.8
		C652.4,11.4,655.9,14.8,655.9,19.2z M642.8,42.2c0-3,2-4.5,5.2-4.5c3.1,0,5.3,1.5,5.3,4.5v56.5c0,3.1-2.2,4.6-5.3,4.6
		c-3.2,0-5.2-1.5-5.2-4.6V42.2z"/>
	<path class="st2" d="M709.2,56.5c0-7.7-4.2-11-13.3-11c-8.5,0-12.6,3.2-14.6,8.6c-0.8,2.2-2.6,3-4.5,3c-0.9,0-1.9-0.1-2.7-0.5
		c-2.2-0.7-3.8-2.3-3.8-4.4c0-0.5,0.1-0.9,0.2-1.4c1.2-3.6,4.2-7,6.8-9c4.1-3.1,9.3-5.1,18.7-5.1c15.5,0,23.2,6.1,23.2,19.8v31.7
		c0,4.1,0.6,8,1.3,10.2c0.1,0.3,0.2,0.8,0.2,1.2c0,1.9-1.7,3.5-4.6,3.7c-0.3,0-0.7,0-1,0c-2.3,0-4.4-0.7-4.9-2.8
		c-0.3-1.4-0.6-3.5-0.7-5.8c-4.4,5-10.6,9.5-22,9.5c-12.8,0-20.5-7.2-20.5-19.1c0-10.9,6.5-17.9,17.5-20.9
		c6.4-1.7,12.4-2.4,24.8-2.7V56.5z M709.2,69.9c-13.6,0.3-20,1.5-24.6,3.8s-7.1,5.9-7.1,11.5c0,6,4.6,10.1,11.6,10.1
		c7.3,0,13.3-3.6,17.1-8.2c2.2-2.8,3-5,3-9.4V69.9z"/>
	<path class="st2" d="M762.6,36.6c15.3,0,21.6,8.5,24.5,15.8c0.2,0.6,0.3,1.3,0.3,1.7c0,2.2-1.7,3.6-3.5,4.3
		c-0.8,0.2-1.7,0.3-2.6,0.3c-1.7,0-3.2-0.7-4.1-2.7c-2.2-5.9-5.7-10.4-14.5-10.4c-12.1,0-18.7,10.2-18.7,24.9
		c0,15.2,6.5,24.8,18.8,24.8c9,0,12.6-4.4,14.8-10.7c0.8-2.2,2.4-3.1,4.3-3.1c0.8,0,1.6,0.1,2.4,0.5c2.1,0.5,3.7,1.9,3.7,3.9
		c0,0.7-0.1,1.3-0.5,2.1c-3.1,8-9.3,16.4-25.1,16.4c-18.8,0-29.3-13.8-29.3-33.8C733.4,50.9,743.6,36.6,762.6,36.6z"/>
	<path class="st2" d="M813.8,19.2c0,4.5-3.5,7.9-7.8,7.9c-4.4,0-7.9-3.4-7.9-7.9c0-4.4,3.5-7.8,7.9-7.8
		C810.3,11.4,813.8,14.8,813.8,19.2z M800.7,42.2c0-3,2-4.5,5.2-4.5c3.1,0,5.3,1.5,5.3,4.5v56.5c0,3.1-2.2,4.6-5.3,4.6
		c-3.2,0-5.2-1.5-5.2-4.6V42.2z"/>
</g>
<path class="st2" d="M371.7,104.5c11.2,0,20.4-9.1,20.4-20.4s-9.1-20.4-20.4-20.4s-20.4,9.1-20.4,20.4S360.4,104.5,371.7,104.5z
	 M371.7,74.2c5.6,0,10,4.6,10,10s-4.6,10-10,10s-10-4.6-10-10C361.7,78.7,366,74.2,371.7,74.2z M407,84.1c0,11.2,9.1,20.4,20.4,20.4
	c11.2,0,20.4-9.1,20.4-20.4s-9.1-20.4-20.4-20.4C416.1,63.8,407,72.9,407,84.1z M427.3,74.2c5.6,0,10,4.6,10,10s-4.6,10-10,10
	c-5.6,0-10-4.6-10-10C417.4,78.7,421.9,74.2,427.3,74.2z M466.4,132.1c-8.7,0-17-4.4-22-11.6l-6.2-8.7c-1.7-2.3-1.2-5.6,1.2-7.3
	c2.3-1.7,5.6-1.2,7.3,1.2l6.4,8.7c3.1,4.6,8.1,7.3,13.5,7.3c8.9,0,16.2-7.3,16.2-16c0-1-0.2-2.3-0.4-3.3l-12.3-65.7
	c-2.5-14.3-14.8-25.1-29.1-26c-0.2,0-0.4,0-0.6,0l-0.6-0.2H360c-15.4,0-28.3,11-31,26.2l-12.3,65.7c-0.2,1-0.4,2.1-0.4,3.1
	c0,8.9,7.3,16,16.2,16c5.4,0,10.4-2.7,13.3-7.1l6-8.3c1.7-2.3,5-2.9,7.3-1.2c2.3,1.7,2.9,5,1.2,7.3l-5.8,8.1
	c-4.8,7.3-13.1,11.6-21.8,11.6c-14.8,0.2-26.8-11.6-26.8-26.4c0-1.9,0.2-3.7,0.6-5.4l12.3-65.4C322.2,14.8,339.5,0,360,0h80
	c0.2,0,0.6,0,0.8,0l0.8,0.2c19.5,1.2,35.3,15.4,38.4,34.5l12.3,65.4c0.4,1.7,0.6,3.5,0.6,5.4C493,120.3,480.9,132.1,466.4,132.1z
	 M419,42.4c-2.5-2.5-2.5-6.4,0-8.9s6.4-2.5,8.9,0s2.5,6.4,0,8.9S421.5,44.9,419,42.4z M444.8,42.4c-2.5-2.5-2.5-6.4,0-8.9
	s6.4-2.5,8.9,0s2.5,6.4,0,8.9C451.2,44.9,447.3,44.9,444.8,42.4z M368.3,24.1V32h7.9c2.9,0,5.2,2.3,5.2,5.2s-2.3,5.2-5.2,5.2h-7.9
	v7.9c0,2.9-2.3,5.2-5.2,5.2c-2.9,0-5.2-2.3-5.2-5.2v-7.9H350c-2.9,0-5.2-2.3-5.2-5.2s2.3-5.2,5.2-5.2h7.9v-7.9
	c0-2.9,2.3-5.2,5.2-5.2C365.8,18.9,368.3,21.2,368.3,24.1z M431.9,46.3c2.5-2.5,6.4-2.5,8.9,0s2.5,6.4,0,8.9c-2.5,2.5-6.4,2.5-8.9,0
	C429.4,52.8,429.4,48.8,431.9,46.3z M431.9,29.5c-2.5-2.5-2.5-6.4,0-8.9s6.4-2.5,8.9,0s2.5,6.4,0,8.9C438.4,32,434.4,32,431.9,29.5z
	"/>
</svg>
